<svg width="19" height="24" viewBox="0 0 19 24" fill="none" xmlns="http://www.w3.org/2000/svg">
<path d="M10.5939 0C10.0608 0 9.6242 0.549183 9.6242 1.22425V2.29102H18.2304V1.22425C18.2304 0.549183 17.8059 0 17.2728 0H10.5939ZM9.80602 3.12745V11.3092H0.0604881L0 13.8912H17.4426C18.0245 13.8912 18.0138 13.4966 18.1456 13.2003V3.12745H9.80616H9.80602ZM0.18171 14.6787C0.974184 17.0499 2.42475 18.8575 4.33931 20.2668C4.46607 21.6282 3.14798 22.7878 2.2302 24H16.3031C14.5616 22.019 13.7383 19.9474 13.6 17.806C14.3965 16.7636 14.8875 15.7213 15.0424 14.6787H0.18171Z" fill="#1A1A1A"/>
</svg>
