<svg width="51" height="51" viewBox="0 0 51 51" fill="none" xmlns="http://www.w3.org/2000/svg">
<path d="M26.5939 14C26.0608 14 25.6242 14.5492 25.6242 15.2242V16.291H34.2304V15.2242C34.2304 14.5492 33.8059 14 33.2728 14H26.5939ZM25.806 17.1274V25.3092H16.0605L16 27.8912H33.4426C34.0245 27.8912 34.0138 27.4966 34.1456 27.2003V17.1274H25.8062H25.806ZM16.1817 28.6787C16.9742 31.0499 18.4248 32.8575 20.3393 34.2668C20.4661 35.6282 19.148 36.7878 18.2302 38H32.3031C30.5616 36.019 29.7383 33.9474 29.6 31.806C30.3965 30.7636 30.8875 29.7213 31.0424 28.6787H16.1817V28.6787Z" fill="#1A1A1A"/>
<circle cx="25.5" cy="25.5" r="25.5" fill="#DEE2E6"/>
<path d="M26.5939 14C26.0608 14 25.6242 14.5492 25.6242 15.2242V16.291H34.2304V15.2242C34.2304 14.5492 33.8059 14 33.2728 14H26.5939ZM25.806 17.1274V25.3092H16.0605L16 27.8912H33.4426C34.0245 27.8912 34.0138 27.4966 34.1456 27.2003V17.1274H25.8062H25.806ZM16.1817 28.6787C16.9742 31.0499 18.4248 32.8575 20.3393 34.2668C20.4661 35.6282 19.148 36.7878 18.2302 38H32.3031C30.5616 36.019 29.7383 33.9474 29.6 31.806C30.3965 30.7636 30.8875 29.7213 31.0424 28.6787H16.1817V28.6787Z" fill="#1A1A1A"/>
</svg>
